<svg xmlns="http://www.w3.org/2000/svg" viewBox="0 0 742.46 241.68"><defs><style>.cls-1{fill:#fbb03b;}.cls-2{fill:none;stroke:#000;stroke-miterlimit:10;stroke-width:6px;}</style></defs><title>itelllogo</title><g id="Ebene_1" data-name="Ebene 1"><path d="M105.78,248.67a1,1,0,0,1-1.12,1.12H92.9a1,1,0,0,1-1.13-1.12V189.6a1,1,0,0,1,1.13-1.13h11.76a1,1,0,0,1,1.12,1.13Z" transform="translate(-29.31 -9.06)"/><path d="M161.31,199.63a1,1,0,0,1-1.13,1.12h-17v47.92a1,1,0,0,1-1.12,1.12H130.34a1,1,0,0,1-1.12-1.12V200.75H112.09a1,1,0,0,1-1.12-1.12v-10a1,1,0,0,1,1.12-1.13h48.09a1.05,1.05,0,0,1,1.13,1.13Z" transform="translate(-29.31 -9.06)"/><path d="M201.69,212.17a1,1,0,0,1,1.13,1.12v10a1,1,0,0,1-1.13,1.12H180.5V237.6h28.29a1,1,0,0,1,1.12,1.12v9.95a1,1,0,0,1-1.12,1.12H167.62a1,1,0,0,1-1.13-1.12V189.6a1.05,1.05,0,0,1,1.13-1.13h41.6c.78,0,1.12.52.95,1.3l-2.77,10a1.19,1.19,0,0,1-1.21.95H180.5v11.42Z" transform="translate(-29.31 -9.06)"/><path d="M255.14,237.6a1,1,0,0,1,1.13,1.12v9.95a1,1,0,0,1-1.13,1.12h-38a1,1,0,0,1-1.12-1.12V189.6a1,1,0,0,1,1.12-1.13h11.77a1,1,0,0,1,1.12,1.13v48Z" transform="translate(-29.31 -9.06)"/><path d="M301.5,237.6a1,1,0,0,1,1.12,1.12v9.95a1,1,0,0,1-1.12,1.12h-38a1,1,0,0,1-1.13-1.12V189.6a1.05,1.05,0,0,1,1.13-1.13h11.76a1.05,1.05,0,0,1,1.13,1.13v48Z" transform="translate(-29.31 -9.06)"/><path d="M316.46,245.1c0,3.32-1.95,5.32-5.26,5.32s-5.2-2-5.2-5.32,1.94-5.31,5.2-5.31S316.46,241.73,316.46,245.1Z" transform="translate(-29.31 -9.06)"/><path d="M338,223.41c-11.85-4.41-16.18-8.73-16.18-18.16,0-11.33,8.57-17.73,22.23-17.73a43.59,43.59,0,0,1,13.84,2.25l5.71,1.9a1,1,0,0,1,.77,1.38l-3.54,9.69c-.26.69-.69.95-1.39.69l-5.1-1.55A35.2,35.2,0,0,0,344,200.06c-4.84,0-8.13,2.08-8.13,5.19s2.68,4.41,7.61,6.23l7.27,2.68c12,4.49,16.34,9,16.34,18.42,0,11.85-8,18.16-22.74,18.16a50.36,50.36,0,0,1-17-2.85l-5.71-1.82a1,1,0,0,1-.78-1.38l3.46-9.6c.26-.69.69-1,1.38-.69l6.06,1.81a41.41,41.41,0,0,0,12.63,2.08c4.67,0,8.64-1.13,8.64-5.71,0-2.6-3-4.58-7.78-6.4Z" transform="translate(-29.31 -9.06)"/><path d="M426.17,219.09c0,19.37-10.46,31.65-27.5,31.65s-27.59-12.28-27.59-31.65,10.46-31.57,27.59-31.57S426.17,199.63,426.17,219.09Zm-41,0c0,11.85,5.1,19.2,13.49,19.2s13.4-7.35,13.4-19.2c0-12.11-5-19-13.4-19S385.18,207,385.18,219.09Z" transform="translate(-29.31 -9.06)"/><path d="M471.32,237.6a1,1,0,0,1,1.12,1.12v9.95a1,1,0,0,1-1.12,1.12h-38a1,1,0,0,1-1.13-1.12V189.6a1.05,1.05,0,0,1,1.13-1.13h11.76a1.05,1.05,0,0,1,1.13,1.13v48Z" transform="translate(-29.31 -9.06)"/><path d="M526.32,224.45c0,16.78-9,26.29-24.47,26.29s-24.57-9.51-24.57-26.29V189.6a1.05,1.05,0,0,1,1.13-1.13h11.76a1,1,0,0,1,1.12,1.13v34.85c0,8.91,3.9,13.84,10.56,13.84s10.55-4.93,10.55-13.84V189.6a1,1,0,0,1,1.12-1.13H525.2a1,1,0,0,1,1.12,1.13Z" transform="translate(-29.31 -9.06)"/><path d="M581.07,199.63a1,1,0,0,1-1.13,1.12h-17v47.92a1,1,0,0,1-1.12,1.12H550.1a1,1,0,0,1-1.12-1.12V200.75H531.85a1,1,0,0,1-1.12-1.12v-10a1,1,0,0,1,1.12-1.13h48.09a1.05,1.05,0,0,1,1.13,1.13Z" transform="translate(-29.31 -9.06)"/><path d="M600.26,248.67a1,1,0,0,1-1.12,1.12H587.38a1,1,0,0,1-1.13-1.12V189.6a1.05,1.05,0,0,1,1.13-1.13h11.76a1,1,0,0,1,1.12,1.13Z" transform="translate(-29.31 -9.06)"/><path d="M661.41,219.09c0,19.37-10.47,31.65-27.5,31.65s-27.59-12.28-27.59-31.65,10.46-31.57,27.59-31.57S661.41,199.63,661.41,219.09Zm-41,0c0,11.85,5.11,19.2,13.5,19.2s13.4-7.35,13.4-19.2c0-12.11-5-19-13.4-19S620.41,207,620.41,219.09Z" transform="translate(-29.31 -9.06)"/><path d="M719.53,248.67a1,1,0,0,1-1.13,1.12H703a1.23,1.23,0,0,1-1.3-.87c-1.3-3-2.94-6.31-4.32-9.16L685.1,214.85c-1.12-2.25-2.07-4.24-3.11-6.49-.69-1.29-1.56-.78-1.47.35a100.43,100.43,0,0,1,1,15.74v24.22a1,1,0,0,1-1.12,1.12H668.59a1,1,0,0,1-1.13-1.12V189.6a1,1,0,0,1,1.13-1.13H684a1.23,1.23,0,0,1,1.3.87c1.38,3,3,6.31,4.41,9.16l12.37,25.08c1,2.25,2,4.24,3.11,6.32.61,1.38,1.56.86,1.38-.35A89,89,0,0,1,705.6,214V189.6a1,1,0,0,1,1.13-1.13H718.4a1.05,1.05,0,0,1,1.13,1.13Z" transform="translate(-29.31 -9.06)"/><path d="M742.62,223.41c-11.85-4.41-16.18-8.73-16.18-18.16,0-11.33,8.57-17.73,22.23-17.73a43.59,43.59,0,0,1,13.84,2.25l5.71,1.9a1,1,0,0,1,.78,1.38l-3.55,9.69c-.26.69-.69.95-1.38.69L759,201.88a35.2,35.2,0,0,0-10.29-1.82c-4.84,0-8.13,2.08-8.13,5.19s2.68,4.41,7.61,6.23l7.27,2.68c12,4.49,16.34,9,16.34,18.42,0,11.85-8,18.16-22.74,18.16a50.36,50.36,0,0,1-17-2.85l-5.71-1.82a1,1,0,0,1-.78-1.38l3.46-9.6c.26-.69.69-1,1.39-.69l6,1.81A41.41,41.41,0,0,0,749,238.29c4.67,0,8.65-1.13,8.65-5.71,0-2.6-3-4.58-7.79-6.4Z" transform="translate(-29.31 -9.06)"/></g><g id="Ebene_4" data-name="Ebene 4"><circle class="cls-1" cx="70.8" cy="70.8" r="70.8"/></g><g id="Ebene_5" data-name="Ebene 5"><path d="M87.59,174.82h20.59c3.86,0,3.87-6,0-6H87.59c-3.86,0-3.87,6,0,6Z" transform="translate(-29.31 -9.06)"/></g><g id="Ebene_6" data-name="Ebene 6"><path d="M85.3,164.24h25.55c3.86,0,3.87-6,0-6H85.3c-3.86,0-3.86,6,0,6Z" transform="translate(-29.31 -9.06)"/></g><g id="Ebene_7" data-name="Ebene 7"><path d="M80.37,154.3h38.1c3.87,0,3.87-6,0-6H80.37c-3.86,0-3.87,6,0,6Z" transform="translate(-29.31 -9.06)"/></g><g id="Ebene_8" data-name="Ebene 8"><path class="cls-2" d="M71.36,138.35C10.32,111.17,50.8,15.8,91.28,15.8c48.18,0,108.82,75.8,32.73,127.56" transform="translate(-29.31 -9.06)"/></g><g id="Ebene_9" data-name="Ebene 9"><path d="M143.74,67.77,130.67,46.09c-3-5-10.77-.43-7.77,4.55L136,72.31c3,5,10.77.44,7.77-4.54Z" transform="translate(-29.31 -9.06)"/></g></svg>
